<?xml version="1.0" encoding="UTF-8"?>
<svg version="1.1" xmlns="http://www.w3.org/2000/svg" width="882" height="877">
<path d="M0 0 C19.10198435 16.45944147 32.15006947 39.72439539 34.14453125 65.01171875 C34.26643829 66.49625801 34.26643829 66.49625801 34.39080811 68.01078796 C35.28787671 79.95784026 35.30253059 91.9008425 35.24609375 103.875 C35.24299194 105.0545929 35.23989014 106.23418579 35.23669434 107.44952393 C35.1770263 126.89048501 34.65534949 146.19328624 32.99609375 165.5625 C32.93528625 166.29466736 32.87447876 167.02683472 32.81182861 167.78118896 C25.14046198 260.14523082 4.71222712 351.01873467 -174.94140625 750.4375 C-185.4419778 759.2709705 -196.67161964 761.33830116 -210.00390625 760.5625 C-241.22047552 756.66042884 -268.25253165 734.29187578 -287.17602539 710.2109375 C-289.85092005 706.70757793 -292.44417854 703.15061257 -295.00390625 699.5625 C-295.43477539 698.96566406 -295.86564453 698.36882813 -296.30957031 697.75390625 C-335.78194943 642.62383755 -377.17886408 544.28837225 -370.00390625 474.5625 C-369.26285557 471.87938547 -368.41682433 469.97623505 -367.00390625 467.5625 C-363.54559813 467.0581634 -361.24600049 466.83639352 -358.1796875 468.62890625 C-353.62426434 472.43941745 -349.92788581 476.96526871 -346.12890625 481.5 C-338.74849127 490.29901233 -330.3045135 499.04609664 -318.48828125 500.97265625 C-300.18527581 502.01624867 -283.19676044 488.90582564 -270.2355957 477.37866211 C-268.48005133 475.78536941 -266.7388892 474.17813183 -265.00390625 472.5625 C-264.08867188 471.71816406 -263.1734375 470.87382812 -262.23046875 470.00390625 C-255.39686554 463.43976689 -249.65169627 456.14170922 -244.00390625 448.5625 C-243.54822266 447.95647949 -243.09253906 447.35045898 -242.62304688 446.72607422 C-226.97095387 425.75911324 -214.16711529 402.67220469 -202.00390625 379.5625 C-201.00038433 377.67687874 -199.99648008 375.79146091 -198.9921875 373.90625 C-158.44399328 297.42408056 -117.58049862 207.95891365 -105.22265625 97.8046875 C-106.66625814 93.66155009 -108.96710478 91.69662809 -112.72265625 89.60546875 C-123.14814993 84.92681482 -134.73479879 87.78873396 -145.00390625 91.5625 C-159.75906665 97.47116602 -172.96246099 105.56569075 -186.00390625 114.5625 C-186.74092773 115.06539551 -187.47794922 115.56829102 -188.23730469 116.08642578 C-198.78092913 123.29385151 -208.89645688 131.00574586 -218.91845703 138.91796875 C-220.83673448 140.43067267 -222.76053554 141.93588731 -224.6875 143.4375 C-230.84912357 148.24486357 -236.9468792 153.12398273 -243.00390625 158.0625 C-249.6411423 163.47408305 -256.33663992 168.80165601 -263.09228516 174.06445312 C-265.2109603 175.72475845 -267.31645791 177.40104357 -269.421875 179.078125 C-295.64778014 199.87330153 -295.64778014 199.87330153 -308.62890625 199.8125 C-309.73492188 199.81765625 -310.8409375 199.8228125 -311.98046875 199.828125 C-314.88457536 199.57298385 -316.54875468 199.07151999 -319.00390625 197.5625 C-317.50384234 194.11470914 -315.49981363 191.73889467 -312.94140625 189 C-309.61957631 185.38491059 -306.45292926 181.70302865 -303.37890625 177.875 C-300.31494172 174.0875994 -297.15290908 170.59268528 -293.65625 167.20703125 C-291.99545024 165.55408397 -290.46768234 163.83998362 -288.94140625 162.0625 C-280.83535557 152.67846836 -272.27675211 143.64327872 -263.3828125 135.00390625 C-261.50636229 133.07815685 -259.76956181 131.13591721 -258.02734375 129.09375 C-253.21701327 123.55182015 -248.00272274 118.41188348 -242.80688477 113.23510742 C-241.06997025 111.503553 -239.33846736 109.76671641 -237.60742188 108.02929688 C-232.45151671 102.87061937 -227.28492023 97.80817986 -221.73217773 93.07250977 C-218.84329153 90.54845818 -216.18153164 87.80689909 -213.50390625 85.0625 C-209.50538021 80.96426009 -205.38941392 77.10534179 -201.05664062 73.36132812 C-197.62185084 70.3513934 -194.31909425 67.20286363 -191.00390625 64.0625 C-186.34984345 59.65386629 -181.6447301 55.33239159 -176.80322266 51.12988281 C-174.56803212 49.18281046 -172.37920622 47.18755531 -170.19140625 45.1875 C-165.81754654 41.23562063 -161.29418503 37.50974635 -156.7109375 33.8046875 C-154.13087034 31.66766218 -151.6567614 29.45514255 -149.19140625 27.1875 C-110.62482719 -7.73499285 -46.45589189 -37.6963284 0 0 Z " fill="#4924AA" transform="translate(836.00390625,30.4375)"/>
<path d="M0 0 C0.9087085 0.00757324 1.81741699 0.01514648 2.75366211 0.02294922 C19.7847028 0.43254328 34.99670269 6.13753753 47.875 17.4375 C48.65230469 18.07429688 49.42960937 18.71109375 50.23046875 19.3671875 C59.21563197 27.39526656 64.25891715 37.94896248 69.875 48.4375 C71.01404739 50.54962778 72.15337658 52.66160361 73.29296875 54.7734375 C75.06695732 58.0660078 76.83793678 61.360069 78.6015625 64.65820312 C82.34255131 71.64492948 86.18741294 78.56000444 90.125 85.4375 C96.43124496 96.47587751 102.35963669 107.70343477 108.28100586 118.95092773 C112.52087386 127.00260741 116.80031719 135.02721744 121.1875 143 C126.5462244 152.75034993 131.68320233 162.60952867 136.79296875 172.4921875 C139.04663731 176.84978841 141.3274343 181.19159322 143.63012695 185.5234375 C147.97830622 193.71162558 152.20220098 201.96125487 156.3664856 210.24423218 C156.98910131 211.48205222 157.61298948 212.71923318 158.23825073 213.95571899 C166.875 231.05225527 166.875 231.05225527 166.875 236.4375 C153.78269196 244.62019252 127.89863621 239.1058904 113.5625 236 C97.26696975 231.83856244 89.41924942 219.12903905 81.21972656 205.50219727 C77.44067624 199.10519395 73.87339638 192.60467561 70.35693359 186.06030273 C65.35837787 176.76248338 60.25606241 167.86410459 53.875 159.4375 C53.22917969 158.56480469 52.58335937 157.69210937 51.91796875 156.79296875 C45.41158525 149.29134495 35.10076217 145.82339301 25.5 144.625 C17.57157261 144.08012911 9.67813011 145.15270567 2.875 149.4375 C1.21581281 151.73787491 -0.00567134 153.74029823 -1.25 156.25 C-1.62922607 156.99604492 -2.00845215 157.74208984 -2.39916992 158.51074219 C-12.64846752 179.29375386 -20.12730988 201.6015801 -28.3125 223.25 C-28.9417186 224.91391785 -28.9417186 224.91391785 -29.58364868 226.6114502 C-60.52928762 308.55082123 -86.8274279 395.18449643 -97.125 482.4375 C-97.22449951 483.25710205 -97.32399902 484.0767041 -97.42651367 484.92114258 C-98.14298398 491.32763922 -98.30826941 497.6818179 -98.3125 504.125 C-98.32474609 505.11822266 -98.33699219 506.11144531 -98.34960938 507.13476562 C-98.36055393 512.62528459 -98.09057908 517.28561379 -96.125 522.4375 C-92.41868881 526.14381119 -86.74297481 526.29041138 -81.6875 526.75 C-67.01717767 525.46312962 -55.97664666 516.52644791 -44.84326172 507.70507812 C-39.40840408 503.40119339 -33.87397445 499.3983995 -28.12890625 495.515625 C-25.065788 493.39653669 -22.13162216 491.15582191 -19.1875 488.875 C-5.15465274 478.31343601 9.748736 470.38586919 27.875 472.4375 C39.03992648 474.94330687 48.36136346 481.66791322 56.609375 489.34765625 C57.875 491.4375 57.875 491.4375 57.74609375 494.35546875 C54.21057138 506.8645591 43.8618519 517.51162984 35.875 527.4375 C35.43333496 527.98857422 34.99166992 528.53964844 34.53662109 529.10742188 C28.9238364 536.09613932 23.11973775 542.92747813 17.30761719 549.75048828 C15.88900845 551.42100403 14.47906198 553.09851042 13.0703125 554.77734375 C6.31741362 562.78689111 -0.74964815 570.45197084 -7.97265625 578.0390625 C-10.66254142 580.86758453 -13.3075515 583.73171009 -15.92959595 586.62321472 C-21.98162886 593.28790739 -28.24649549 599.71345628 -34.6237793 606.06665039 C-36.32523778 607.76269726 -38.02121263 609.46409821 -39.71679688 611.16601562 C-44.80068719 616.25300596 -49.8954185 621.25644174 -55.36987305 625.92749023 C-58.31414971 628.46057567 -61.11251896 631.14815433 -63.9375 633.8125 C-69.79955065 639.29141009 -75.84471207 644.44046441 -82.125 649.4375 C-83.26532315 650.36856797 -84.40458739 651.30093387 -85.54296875 652.234375 C-111.09669025 673.09134913 -143.3060347 698.3953593 -178.12695312 695.68115234 C-182.37484157 695.16314249 -185.6145229 693.82253752 -189.125 691.4375 C-190.14400391 690.81875 -190.14400391 690.81875 -191.18359375 690.1875 C-203.38065979 682.07149387 -208.44263065 667.68708297 -211.3515625 653.9375 C-228.21731409 567.29987122 -201.61969652 470.63710861 -85.125 80.4375 C-84.76390137 79.66698303 -84.40280273 78.89646606 -84.03076172 78.1026001 C-81.79769925 73.34049918 -79.5480546 68.58675915 -77.27706909 63.84262085 C-76.56567736 62.35390469 -75.85761713 60.86359067 -75.15335083 59.37149048 C-64.61181226 37.08581187 -50.40139361 18.4599319 -28 7.0625 C-27.36747314 6.74055664 -26.73494629 6.41861328 -26.08325195 6.08691406 C-17.5814736 1.96523621 -9.45775835 -0.11226355 0 0 Z " fill="#39CDDD" transform="translate(222.125,178.5625)"/>
<path d="M0 0 C8.84480934 6.47537418 15.82660424 15.46194391 18.1875 26.3125 C19.06685173 40.85784256 17.73415103 52.64437096 8.1875 64.3125 C0.34732026 72.69338179 -9.36852798 77.43809463 -20.8125 78.3125 C-32.91019547 78.56640225 -43.43920871 75.11098585 -52.77734375 67.33203125 C-61.77239024 58.40604462 -66.00261532 48.24983918 -66.125 35.6875 C-66.1496284 23.67842084 -61.92580039 14.03348432 -53.84765625 5.15234375 C-39.20552404 -9.01319103 -17.19767013 -10.60818484 0 0 Z " fill="#4924A9" transform="translate(462.8125,409.6875)"/>
</svg>
